P2
136	90
255
255	255	255	255	255	255	255	255	255	255	255	255	255	255	255	255	255	255	255	255	255	255	255	254	254	254	254	254	255	255	254	254	254	254	254	254	254	254	254	254	255	255	255	255	255	255	255	255	254	254	255	255	254	254	254	254	254	254	254	254	254	254	253	253	254	254	254	254	254	254	254	254	253	253	254	254	254	254	254	254	254	254	254	254	255	255	254	254	255	255	255	255	255	255	255	255	254	254	254	254	254	254	254	254	254	254	255	255	254	254	254	254	254	255	255	255	255	255	255	255	255	255	255	255	255	255	255	255	255	255	255	255	255	255	255	255	255	255	255	255	255	255	255	255	255	255	255	255	255	255	255	255	255	255	255	255	255	255	255	255	254	254	254	254	255	254	254	254	254	254	254	254	254	254	254	255	255	255	255	255	255	255	255	255	254	254	255	255	254	254	254	254	254	254	254	254	254	254	253	253	254	254	254	254	254	254	254	254	253	253	254	254	254	254	254	254	254	254	254	254	255	255	254	254	255	255	255	255	255	255	255	255	255	254	254	254	254	254	254	254	254	254	254	255	254	254	254	254	255	255	255	255	255	255	255	255	255	255	255	255	255	255	255	255	255	255	255	255	255	255	255	255	255	255	255	255	255	255	255	255	255	255	255	255	255	255	255	255	255	255	255	255	255	255	255	255	255	255	255	255	254	254	254	254	254	254	254	254	254	254	254	254	255	255	255	255	255	255	255	255	254	254	255	255	255	255	254	254	255	255	254	254	254	254	253	253	254	254	254	254	254	254	254	254	253	253	254	254	254	254	255	255	254	254	255	255	255	255	254	254	255	255	255	255	255	255	255	255	254	254	254	254	254	254	254	254	254	254	254	254	255	255	255	255	255	255	255	255	255	255	255	255	255	255	255	255	255	255	255	255	255	255	255	255	255	255	255	255	255	255	255	255	255	255	255	255	255	255	255	255	255	255	255	255	255	255	255	255	255	255	255	255	255	255	255	255	254	254	254	254	254	254	254	254	254	254	254	254	255	255	255	255	255	255	255	255	254	254	255	255	255	255	254	254	255	255	254	254	254	254	253	253	254	254	255	255	255	255	254	254	253	253	254	254	254	254	255	255	254	254	255	255	255	255	254	254	255	255	255	255	255	255	255	255	254	254	254	254	254	254	254	254	254	254	254	254	255	255	255	255	255	255	255	255	255	255	255	255	255	255	255	255	255	255	255	255	255	255	255	255	255	255	255	255	255	255	255	255	255	255	255	255	255	255	255	255	255	255	255	255	255	255	255	255	255	255	255	255	254	254	254	254	254	254	254	254	254	254	254	254	254	254	254	254	255	255	255	255	255	255	255	255	254	254	255	255	255	255	255	255	254	254	254	254	254	254	254	254	254	254	254	254	254	254	254	254	254	254	254	254	254	254	254	254	255	255	255	255	255	255	254	254	255	255	255	255	255	255	255	255	254	254	254	254	254	254	254	254	254	254	254	254	254	254	254	254	255	255	255	255	255	255	255	255	255	255	255	255	255	255	255	255	255	255	255	255	255	255	255	255	255	255	255	255	255	255	255	255	255	255	255	255	255	255	255	255	255	255	255	255	255	255	255	254	254	254	254	254	254	254	254	255	254	255	254	254	254	254	254	254	255	255	255	255	255	255	255	255	254	254	255	255	255	255	255	255	254	254	254	254	254	254	254	254	254	254	254	254	254	254	254	254	254	254	254	254	254	254	254	254	255	255	255	255	255	255	254	254	255	255	255	255	255	255	255	255	254	254	254	254	254	254	255	254	255	254	254	254	254	254	254	254	254	255	255	255	255	255	255	255	255	255	255	255	255	255	255	255	255	255	255	255	255	255	255	255	255	255	255	255	255	255	255	255	255	255	255	255	255	255	255	255	255	255	255	255	255	255	255	254	254	254	254	254	254	254	254	254	254	254	254	254	254	254	254	254	255	255	255	255	255	255	255	255	254	254	254	254	255	255	254	254	254	254	254	254	254	254	253	253	254	253	253	253	253	253	253	254	253	253	254	254	254	254	254	254	254	254	255	255	254	254	254	254	255	255	255	255	255	255	255	255	254	254	254	254	254	254	254	254	254	254	254	254	254	254	254	254	254	255	255	255	255	255	255	255	255	255	255	255	255	255	255	255	255	255	255	255	255	255	255	255	255	255	255	255	255	255	255	255	255	255	255	255	255	255	255	255	255	255	255	255	255	255	255	254	254	254	254	254	254	255	254	254	254	254	254	254	254	254	254	254	254	255	255	255	255	255	255	255	254	254	254	254	255	254	254	254	254	254	254	254	254	254	253	253	254	253	253	254	254	253	253	254	253	253	254	254	254	254	254	254	254	254	254	255	254	254	254	254	255	255	255	255	255	255	255	254	254	254	254	254	254	254	254	254	254	254	255	254	254	254	254	254	254	255	255	255	255	255	255	255	255	255	255	255	255	255	255	255	255	255	255	255	255	255	255	255	255	255	255	255	255	255	255	255	255	255	255	255	255	255	255	255	255	255	255	255	255	255	255	254	254	254	254	254	249	252	254	250	250	253	254	254	253	251	251	253	254	254	255	255	255	255	255	255	254	254	254	254	255	254	254	254	254	254	249	254	253	249	253	248	250	253	254	251	251	254	253	250	248	253	249	253	254	249	254	254	254	254	254	255	254	254	254	254	255	255	255	255	255	255	254	254	253	251	251	253	254	254	253	250	250	254	252	249	254	254	254	254	254	255	255	255	255	255	255	255	255	255	255	255	255	255	255	255	255	255	255	255	255	255	255	255	255	255	255	255	255	255	255	255	255	255	255	255	255	255	255	255	255	255	255	255	255	255	255	254	254	254	254	253	252	254	244	228	227	235	251	253	247	253	253	251	254	254	255	255	255	255	255	254	254	254	254	255	255	254	254	254	252	255	254	254	251	253	253	253	254	247	247	255	255	247	247	254	253	253	253	251	254	254	255	252	254	254	254	255	255	254	254	254	254	255	255	255	255	255	254	254	251	253	253	247	253	251	235	227	228	244	254	252	253	254	254	254	254	255	255	255	255	255	255	255	255	255	255	255	255	255	255	255	255	255	255	255	255	255	255	255	255	255	255	255	255	255	255	255	255	255	255	255	255	255	255	255	255	255	255	255	255	255	255	254	254	254	254	250	254	253	220	207	215	216	228	247	253	252	251	253	254	254	255	255	255	255	255	254	254	254	254	255	255	254	254	254	253	255	254	254	250	253	246	247	251	254	253	247	247	253	254	251	247	246	253	250	254	254	255	253	254	254	254	255	255	254	254	254	254	255	255	255	255	255	254	254	253	251	252	253	247	228	216	215	207	220	253	254	250	254	254	254	254	255	255	255	255	255	255	255	255	255	255	255	255	255	255	255	255	255	255	255	255	255	255	255	255	255	255	255	255	255	255	255	255	255	255	255	255	255	255	255	255	255	255	255	255	255	255	254	254	252	255	250	254	247	202	207	217	222	212	222	253	253	244	253	254	254	255	255	255	255	255	254	254	254	254	255	254	254	254	254	254	252	252	254	252	253	220	216	225	243	254	252	252	254	243	225	216	220	253	252	254	252	252	254	254	254	254	254	255	254	254	254	254	255	255	255	255	255	254	254	253	244	253	253	222	212	222	217	207	202	247	254	250	255	252	254	254	255	255	255	255	255	255	255	255	255	255	255	255	255	255	255	255	255	255	255	255	255	255	255	255	255	255	255	255	255	255	255	255	255	255	255	255	255	255	255	255	255	255	255	255	255	255	255	254	250	254	251	254	236	199	223	221	234	223	205	220	250	252	246	253	254	255	255	255	255	255	254	254	254	254	255	254	254	254	254	254	252	253	253	251	240	201	201	209	203	224	253	253	224	203	209	201	201	240	251	253	253	252	254	254	254	254	254	255	254	254	254	254	255	255	255	255	255	254	253	246	252	250	220	205	223	234	221	223	199	236	254	251	254	250	254	255	255	255	255	255	255	255	255	255	255	255	255	255	255	255	255	255	255	255	255	255	255	255	255	255	255	255	255	255	255	255	255	255	255	255	255	255	255	255	255	255	255	255	255	255	255	255	255	254	251	254	253	254	231	205	233	232	228	236	221	197	226	252	246	253	254	255	255	255	255	255	254	254	254	254	255	254	254	254	253	254	253	254	253	250	220	201	216	223	206	206	214	214	206	206	223	216	201	220	250	253	254	253	254	253	254	254	254	255	254	254	254	254	255	255	255	255	255	254	253	246	252	226	197	221	236	228	232	233	205	231	254	253	254	251	254	255	255	255	255	255	255	255	255	255	255	255	255	255	255	255	255	255	255	255	255	255	255	255	255	255	255	255	255	255	255	255	255	255	255	255	255	255	255	255	255	255	255	255	255	255	255	255	255	253	254	253	254	254	232	214	229	236	225	236	238	210	202	231	252	253	254	255	255	255	255	255	254	254	254	254	255	254	254	254	253	253	253	254	253	252	206	207	229	235	230	209	164	164	209	230	235	229	207	206	252	253	254	253	253	253	254	254	254	255	254	254	254	254	255	255	255	255	255	254	253	252	231	202	210	238	236	225	236	229	214	232	254	254	253	254	253	255	255	255	255	255	255	255	255	255	255	255	255	255	255	255	255	255	255	255	255	255	255	255	255	255	255	255	255	255	255	255	255	255	255	255	255	255	255	255	255	255	255	255	255	255	255	255	255	251	254	253	254	254	236	221	219	226	241	236	232	230	203	203	250	253	254	255	255	255	255	254	254	254	254	254	255	254	254	254	254	253	251	250	252	253	202	208	227	228	227	204	171	171	204	227	228	227	208	202	253	252	250	251	253	254	254	254	254	255	254	254	254	254	254	255	255	255	255	254	253	250	203	203	230	232	236	241	226	219	221	236	254	254	253	254	251	255	255	255	255	255	255	255	255	255	255	255	255	255	255	255	255	255	255	255	255	255	255	255	255	255	255	255	255	255	255	255	255	255	255	255	255	255	255	255	255	255	255	255	255	255	255	255	255	255	252	254	254	252	235	214	219	228	239	245	241	230	220	211	203	253	252	252	252	251	254	254	247	254	254	254	252	254	248	254	254	253	244	253	252	245	200	211	224	233	187	168	191	191	168	187	233	224	211	200	245	252	253	244	253	254	254	248	254	252	254	254	254	247	254	254	251	252	252	252	253	203	211	220	230	241	245	239	228	219	214	235	252	254	254	252	255	255	255	255	255	255	255	255	255	255	255	255	255	255	255	255	255	255	255	255	255	255	255	255	255	255	255	255	255	255	255	255	255	255	255	255	255	255	255	255	255	255	255	255	255	255	255	255	255	255	252	254	254	252	236	216	219	226	229	232	233	233	228	213	197	232	245	254	254	254	252	248	254	251	247	254	254	254	253	253	249	253	252	253	243	250	195	205	223	200	186	187	204	204	187	186	200	223	205	195	250	243	253	252	253	249	253	253	254	254	254	247	251	254	248	252	254	254	254	245	232	197	213	228	233	233	232	229	226	219	216	236	252	254	254	252	255	255	255	255	255	255	255	255	255	255	255	255	255	255	255	255	255	255	255	255	255	255	255	255	255	255	255	255	255	255	255	255	255	255	255	255	255	255	255	255	255	255	255	255	255	255	255	255	255	255	252	254	254	252	239	218	220	222	224	226	232	241	242	227	210	199	239	253	245	253	254	249	248	254	252	252	254	246	254	253	254	252	252	249	248	250	205	207	200	168	188	207	212	212	207	188	168	200	207	205	250	248	249	252	252	254	253	254	246	254	252	252	254	248	249	254	253	245	253	239	199	210	227	242	241	232	226	224	222	220	218	239	252	254	254	252	255	255	255	255	255	255	255	255	255	255	255	255	255	255	255	255	255	255	255	255	255	255	255	255	255	255	255	255	255	255	255	255	255	255	255	255	255	255	255	255	255	255	255	255	255	255	255	255	255	255	253	254	254	253	243	222	221	210	216	222	227	232	233	226	216	184	204	251	248	253	252	249	253	250	253	252	253	253	253	251	249	253	252	253	250	243	211	180	147	170	198	216	214	214	216	198	170	147	180	211	243	250	253	252	253	249	251	253	253	253	252	253	250	253	249	252	253	248	251	204	184	216	226	233	232	227	222	216	210	221	222	243	253	254	254	253	255	255	255	255	255	255	255	255	255	255	255	255	255	255	255	255	255	255	255	255	255	255	255	255	255	255	255	255	255	255	255	255	255	255	255	255	255	255	255	255	255	255	255	255	255	255	255	255	255	254	254	254	253	254	247	226	222	213	219	223	225	227	228	222	214	195	179	209	232	245	252	253	251	250	252	242	242	248	252	246	253	245	251	252	245	249	212	151	149	182	199	210	210	210	210	199	182	149	151	212	249	245	252	251	245	253	246	252	248	242	242	252	250	251	253	252	245	232	209	179	195	214	222	228	227	225	223	219	213	222	226	247	254	253	254	254	254	255	255	255	255	255	255	255	255	255	255	255	255	255	255	255	255	255	255	255	255	255	255	255	255	255	255	255	255	255	255	255	255	255	255	255	255	255	255	255	255	255	255	255	255	255	255	255	255	254	254	254	253	254	251	229	222	222	224	225	229	235	239	231	219	206	190	182	206	190	229	232	213	198	193	166	157	168	176	185	217	243	238	251	236	240	176	137	151	180	184	192	198	198	192	184	180	151	137	176	240	236	251	238	243	217	185	176	168	157	166	193	198	213	232	229	190	206	182	190	206	219	231	239	235	229	225	224	222	222	229	251	254	253	254	254	254	255	255	255	255	255	255	255	255	255	255	255	255	255	255	255	255	255	255	255	255	255	255	255	255	255	255	255	255	255	255	255	255	255	255	255	255	255	255	255	255	255	255	255	255	255	255	255	255	254	255	254	252	254	253	232	223	219	221	222	226	234	236	227	213	199	194	186	206	173	163	184	192	188	172	168	173	177	170	177	187	182	185	185	207	199	172	166	176	179	180	184	189	189	184	180	179	176	166	172	199	207	185	185	182	187	177	170	177	173	168	172	188	192	184	163	173	206	186	194	199	213	227	236	234	226	222	221	219	223	232	253	254	252	254	255	254	255	255	255	255	255	255	255	255	255	255	255	255	255	255	255	255	255	255	255	255	255	255	255	255	255	255	255	255	255	255	255	255	255	255	255	255	255	255	255	255	255	255	255	255	255	255	255	255	254	255	254	252	253	253	233	223	220	225	229	230	230	227	217	205	187	195	188	182	199	178	192	155	200	168	181	193	188	174	184	174	174	219	156	196	183	184	159	170	195	195	193	191	191	193	195	195	170	159	184	183	196	156	219	174	174	184	174	188	193	181	168	200	155	192	178	199	182	188	195	187	205	217	227	230	230	229	225	220	223	233	253	253	252	254	255	254	255	255	255	255	255	255	255	255	255	255	255	255	255	255	255	255	255	255	255	255	255	255	255	255	255	255	255	255	255	255	255	255	255	255	255	255	255	255	255	255	255	255	255	255	255	255	255	255	254	254	255	249	253	253	232	231	220	214	214	215	208	203	203	202	209	180	185	195	177	168	135	134	196	184	162	178	183	156	202	138	144	185	177	181	181	193	187	151	165	194	208	201	201	208	194	165	151	187	193	181	181	177	185	144	138	202	156	183	178	162	184	196	134	135	168	177	195	185	180	209	202	203	203	208	215	214	214	220	231	232	253	253	249	255	254	254	255	255	255	255	255	255	255	255	255	255	255	255	255	255	255	255	255	255	255	255	255	255	255	255	255	255	255	255	255	255	255	255	255	255	255	255	255	255	255	255	255	255	255	255	255	255	255	255	254	254	254	251	253	252	231	228	226	216	208	209	214	219	221	222	226	192	172	166	160	172	150	141	197	171	162	158	172	181	212	169	143	167	161	183	195	202	199	178	172	170	181	196	196	181	170	172	178	199	202	195	183	161	167	143	169	212	181	172	158	162	171	197	141	150	172	160	166	172	192	226	222	221	219	214	209	208	216	226	228	231	252	253	251	254	254	254	255	255	255	255	255	255	255	255	255	255	255	255	255	255	255	255	255	255	255	255	255	255	255	255	255	255	255	255	255	255	255	255	255	255	255	255	255	255	255	255	255	255	255	255	255	255	255	255	253	254	254	253	253	251	230	223	212	218	213	209	221	228	216	200	168	173	178	182	186	192	158	131	191	181	172	161	159	160	185	156	143	182	187	186	172	167	182	189	200	179	170	178	178	170	179	200	189	182	167	172	186	187	182	143	156	185	160	159	161	172	181	191	131	158	192	186	182	178	173	168	200	216	228	221	209	213	218	212	223	230	251	253	253	254	254	253	255	255	255	255	255	255	255	255	255	255	255	255	255	255	255	255	255	255	255	255	255	255	255	255	255	255	255	255	255	255	255	255	255	255	255	255	255	255	255	255	255	255	255	255	255	255	255	255	253	254	254	253	253	250	232	219	202	208	211	218	225	212	188	176	183	190	182	176	178	179	159	132	173	193	151	155	158	156	211	181	134	181	196	187	182	184	173	139	189	191	182	166	166	182	191	189	139	173	184	182	187	196	181	134	181	211	156	158	155	151	193	173	132	159	179	178	176	182	190	183	176	188	212	225	218	211	208	202	219	232	250	253	253	254	254	253	255	255	255	255	255	255	255	255	255	255	255	255	255	255	255	255	255	255	255	255	255	255	255	255	255	255	255	255	255	255	255	255	255	255	255	255	255	255	255	255	255	255	255	255	255	255	255	255	254	254	252	253	253	251	239	219	211	198	203	222	218	189	178	193	199	195	181	186	189	175	162	133	176	217	159	154	161	168	198	145	158	182	191	179	187	199	181	125	142	168	181	172	172	181	168	142	125	181	199	187	179	191	182	158	145	198	168	161	154	159	217	176	133	162	175	189	186	181	195	199	193	178	189	218	222	203	198	211	219	239	251	253	253	252	254	254	255	255	255	255	255	255	255	255	255	255	255	255	255	255	255	255	255	255	255	255	255	255	255	255	255	255	255	255	255	255	255	255	255	255	255	255	255	255	255	255	255	255	255	255	255	255	255	255	254	254	251	254	253	252	248	226	205	204	213	214	199	187	192	197	187	178	169	182	175	158	191	192	140	197	182	154	158	194	173	136	192	180	187	180	173	174	185	166	142	147	163	180	180	163	147	142	166	185	174	173	180	187	180	192	136	173	194	158	154	182	197	140	192	191	158	175	182	169	178	187	197	192	187	199	214	213	204	205	226	248	252	253	254	251	254	254	255	255	255	255	255	255	255	255	255	255	255	255	255	255	255	255	255	255	255	255	255	255	255	255	255	255	255	255	255	255	255	255	255	255	255	255	255	255	255	255	255	255	255	255	255	255	255	255	254	254	253	254	252	251	252	236	189	202	221	211	188	193	200	181	173	173	183	198	165	134	197	219	146	187	198	154	148	197	158	177	203	146	161	194	198	182	187	181	170	149	152	177	177	152	149	170	181	187	182	198	194	161	146	203	177	158	197	148	154	198	187	146	219	197	134	165	198	183	173	173	181	200	193	188	211	221	202	189	236	252	251	252	254	253	254	254	255	255	255	255	255	255	255	255	255	255	255	255	255	255	255	255	255	255	255	255	255	255	255	255	255	255	255	255	255	255	255	255	255	255	255	255	255	255	255	255	255	255	255	255	255	255	255	254	253	254	254	254	250	251	252	244	188	183	208	218	193	186	195	185	181	180	194	210	166	131	198	219	151	172	186	165	163	194	147	195	219	136	152	202	207	181	183	185	170	151	153	174	174	153	151	170	185	183	181	207	202	152	136	219	195	147	194	163	165	186	172	151	219	198	131	166	210	194	180	181	185	195	186	193	218	208	183	188	244	252	251	250	254	254	254	253	254	255	255	255	255	255	255	255	255	255	255	255	255	255	255	255	255	255	255	255	255	255	255	255	255	255	255	255	255	255	255	255	254	254	255	255	255	255	255	255	254	254	254	254	254	254	254	254	253	254	253	254	254	253	251	241	172	202	209	196	194	204	190	167	160	159	172	214	178	134	210	218	186	172	186	177	170	185	166	201	225	144	172	204	192	178	157	181	175	151	118	157	157	118	151	175	181	157	178	192	204	172	144	225	201	166	185	170	177	186	172	186	218	210	134	178	214	172	159	160	167	190	204	194	196	209	202	172	241	251	253	254	254	253	254	253	254	254	254	254	254	254	254	254	255	255	255	255	255	255	254	254	255	255	255	255	255	255	255	255	255	255	255	255	255	255	255	255	254	254	255	255	255	255	255	255	254	254	254	254	254	254	254	254	252	254	251	253	253	251	250	236	180	199	219	196	189	190	195	203	198	190	180	197	181	144	195	222	196	188	186	182	178	193	189	211	223	153	187	214	183	170	170	191	188	163	123	147	147	123	163	188	191	170	170	183	214	187	153	223	211	189	193	178	182	186	188	196	222	195	144	181	197	180	190	198	203	195	190	189	196	219	199	180	236	250	251	253	253	251	254	252	254	254	254	254	254	254	254	254	255	255	255	255	255	255	254	254	255	255	255	255	255	255	255	255	255	255	255	255	255	255	255	255	255	255	255	255	255	255	255	255	255	255	254	254	254	254	254	254	254	254	252	253	253	253	250	232	201	193	215	191	180	199	218	205	214	210	206	224	234	210	208	202	191	194	189	196	192	197	196	200	207	206	224	219	217	225	209	207	206	155	131	169	169	131	155	206	207	209	225	217	219	224	206	207	200	196	197	192	196	189	194	191	202	208	210	234	224	206	210	214	205	218	199	180	191	215	193	201	232	250	253	253	253	252	254	254	254	254	254	254	254	254	255	255	255	255	255	255	255	255	255	255	255	255	255	255	255	255	255	255	255	255	255	255	255	255	255	255	255	255	255	255	255	255	255	255	255	255	254	254	254	254	254	254	254	254	253	254	253	253	251	226	205	202	206	202	184	170	176	171	147	151	132	146	198	216	222	213	189	188	192	206	195	194	189	197	226	226	205	163	150	162	181	215	226	151	128	169	169	128	151	226	215	181	162	150	163	205	226	226	197	189	194	195	206	192	188	189	213	222	216	198	146	132	151	147	171	176	170	184	202	206	202	205	226	251	253	253	254	253	254	254	254	254	254	254	254	254	255	255	255	255	255	255	255	255	255	255	255	255	255	255	255	255	255	255	255	255	255	255	255	255	255	255	255	255	255	255	255	255	255	255	255	255	255	255	255	255	255	254	254	254	252	253	252	253	249	214	187	217	161	132	141	178	181	143	145	147	172	199	146	150	227	220	203	185	194	201	186	193	196	223	219	155	153	180	171	146	135	138	178	118	126	154	154	126	118	178	138	135	146	171	180	153	155	219	223	196	193	186	201	194	185	203	220	227	150	146	199	172	147	145	143	181	178	141	132	161	217	187	214	249	253	252	253	252	254	254	254	255	255	255	255	255	255	255	255	255	255	255	255	255	255	255	255	255	255	255	255	255	255	255	255	255	255	255	255	255	255	255	255	255	255	255	255	255	255	255	255	255	255	254	255	254	255	255	254	253	253	254	252	253	246	202	196	160	140	182	208	222	223	167	184	182	133	152	170	153	188	237	210	185	192	198	184	200	210	239	184	163	169	175	186	182	158	167	209	144	114	61	61	114	144	209	167	158	182	186	175	169	163	184	239	210	200	184	198	192	185	210	237	188	153	170	152	133	182	184	167	223	222	208	182	140	160	196	202	246	253	252	254	253	253	254	255	255	254	255	254	255	255	255	255	255	255	255	255	255	255	255	255	255	255	255	255	255	255	255	255	255	255	255	255	255	255	255	255	255	255	255	255	255	254	254	254	254	254	254	254	254	254	254	255	254	254	254	252	253	241	189	182	138	177	197	197	203	231	195	203	206	153	170	199	170	171	240	211	193	186	195	187	205	221	229	166	206	187	136	179	215	179	202	225	163	141	73	73	141	163	225	202	179	215	179	136	187	206	166	229	221	205	187	195	186	193	211	240	171	170	199	170	153	206	203	195	231	203	197	197	177	138	182	189	241	253	252	254	254	254	255	254	254	254	254	254	254	254	254	254	254	255	255	255	255	255	255	255	255	255	255	255	255	255	255	255	255	255	255	255	255	255	255	255	255	255	255	255	255	254	254	254	254	254	254	254	254	254	254	254	252	254	254	250	250	234	177	166	152	193	159	194	191	209	228	183	216	219	221	201	162	155	230	219	207	179	189	184	204	229	214	140	201	232	198	219	220	178	231	209	133	131	89	89	131	133	209	231	178	220	219	198	232	201	140	214	229	204	184	189	179	207	219	230	155	162	201	221	219	216	183	228	209	191	194	159	193	152	166	177	234	250	250	254	254	252	254	254	254	254	254	254	254	254	254	254	254	255	255	255	255	255	255	255	255	255	255	255	255	255	255	255	255	255	255	255	255	255	255	254	254	255	255	255	255	254	254	254	254	254	254	250	253	254	251	251	254	254	254	245	232	207	178	132	189	223	188	179	193	176	188	223	196	200	184	179	163	143	205	203	191	185	186	180	208	222	167	141	170	205	220	194	189	218	213	155	136	76	125	125	76	136	155	213	218	189	194	220	205	170	141	167	222	208	180	186	185	191	203	205	143	163	179	184	200	196	223	188	176	193	179	188	223	189	132	178	207	232	245	254	254	254	251	251	254	253	250	254	254	254	254	254	254	255	255	255	255	254	254	255	255	255	255	255	255	255	255	255	255	255	255	255	255	255	255	254	254	255	255	255	255	254	254	254	249	250	254	254	254	253	250	254	246	230	214	205	204	193	172	177	216	234	210	201	193	183	182	195	200	216	230	231	192	153	170	191	196	194	196	194	196	195	165	187	203	200	203	216	215	199	181	164	118	66	157	157	66	118	164	181	199	215	216	203	200	203	187	165	195	196	194	196	194	196	191	170	153	192	231	230	216	200	195	182	183	193	201	210	234	216	177	172	193	204	205	214	230	246	254	250	253	254	254	254	250	249	254	254	254	255	255	255	255	254	254	255	255	255	255	255	255	255	255	255	255	255	255	255	255	255	255	254	254	254	254	255	255	254	254	254	252	253	254	253	254	254	253	230	213	193	181	180	187	182	164	211	211	217	217	212	178	187	192	171	187	184	207	220	191	174	169	183	206	208	211	211	190	177	176	179	216	234	217	201	190	182	193	184	82	135	198	198	135	82	184	193	182	190	201	217	234	216	179	176	177	190	211	211	208	206	183	169	174	191	220	207	184	187	171	192	187	178	212	217	217	211	211	164	182	187	180	181	193	213	230	253	254	254	253	254	253	252	254	254	254	255	255	254	254	254	254	255	255	255	255	255	255	255	255	255	255	255	255	255	255	255	255	254	254	254	254	255	254	254	254	254	254	254	254	253	253	245	227	189	179	172	170	174	184	182	169	223	207	222	222	220	183	181	173	175	188	175	185	197	182	172	161	167	193	203	206	202	177	163	173	175	174	195	189	177	186	183	179	171	73	164	182	182	164	73	171	179	183	186	177	189	195	174	175	173	163	177	202	206	203	193	167	161	172	182	197	185	175	188	175	173	181	183	220	222	222	207	223	169	182	184	174	170	172	179	189	227	245	253	253	254	254	254	254	254	254	254	255	254	254	254	254	255	255	255	255	255	255	255	255	255	255	255	255	255	255	255	255	254	254	254	254	255	254	254	254	254	250	253	254	254	238	207	177	172	167	164	162	165	177	186	184	205	184	206	194	214	224	221	201	186	193	193	190	196	192	169	158	161	179	198	200	189	172	160	162	185	182	198	193	180	186	191	206	209	163	172	204	204	172	163	209	206	191	186	180	193	198	182	185	162	160	172	189	200	198	179	161	158	169	192	196	190	193	193	186	201	221	224	214	194	206	184	205	184	186	177	165	162	164	167	172	177	207	238	254	254	253	250	254	254	254	254	255	254	254	254	254	255	255	255	255	255	255	255	255	255	255	255	255	255	255	255	255	254	254	254	254	255	254	254	254	254	252	254	254	227	191	171	165	161	158	158	158	161	175	190	194	189	150	164	159	185	204	197	191	193	189	199	193	200	204	171	161	166	178	204	205	188	176	164	160	195	203	193	187	205	197	178	192	207	154	146	172	172	146	154	207	192	178	197	205	187	193	203	195	160	164	176	188	205	204	178	166	161	171	204	200	193	199	189	193	191	197	204	185	159	164	150	189	194	190	175	161	158	158	158	161	165	171	191	227	254	254	252	254	254	254	254	255	254	254	254	254	255	255	255	255	255	255	255	255	255	255	255	255	255	255	255	255	254	254	254	254	255	254	254	254	254	254	253	225	180	156	159	168	151	148	152	158	167	182	194	195	164	148	166	181	197	203	202	209	204	189	193	192	203	206	171	155	160	173	198	197	184	171	159	170	199	216	194	185	207	205	192	194	187	118	124	110	110	124	118	187	194	192	205	207	185	194	216	199	170	159	171	184	197	198	173	160	155	171	206	203	192	193	189	204	209	202	203	197	181	166	148	164	195	194	182	167	158	152	148	151	168	159	156	180	225	253	254	254	254	254	254	255	254	254	254	254	255	255	255	255	255	255	255	255	255	255	255	255	255	255	255	255	254	254	254	255	255	254	254	254	251	254	239	191	155	157	163	152	154	147	148	157	169	186	196	193	157	180	179	162	154	174	202	208	205	175	156	157	180	196	185	176	154	171	192	190	184	168	159	189	197	198	168	157	173	198	218	203	192	148	86	61	61	86	148	192	203	218	198	173	157	168	198	197	189	159	168	184	190	192	171	154	176	185	196	180	157	156	175	205	208	202	174	154	162	179	180	157	193	196	186	169	157	148	147	154	152	163	157	155	191	239	254	251	254	254	254	255	255	254	254	254	255	255	255	255	255	255	255	255	255	255	255	255	255	255	255	255	255	254	255	254	254	254	251	253	253	248	205	161	159	165	152	142	145	141	155	173	174	158	185	192	201	168	181	201	206	210	209	218	219	209	209	203	192	204	221	219	170	136	172	182	141	162	208	213	206	180	185	193	205	199	201	184	161	133	88	70	70	88	133	161	184	201	199	205	193	185	180	206	213	208	162	141	182	172	136	170	219	221	204	192	203	209	209	219	218	209	210	206	201	181	168	201	192	185	158	174	173	155	141	145	142	152	165	159	161	205	248	253	253	251	254	254	254	255	254	255	255	255	255	255	255	255	255	255	255	255	255	255	255	255	255	255	254	253	254	254	254	254	253	254	251	203	158	153	161	146	134	143	148	154	161	175	160	154	179	193	189	215	197	196	203	200	221	225	230	206	186	173	161	172	201	221	226	183	138	137	171	206	222	218	193	178	179	169	186	183	179	175	168	177	158	129	129	158	177	168	175	179	183	186	169	179	178	193	218	222	206	171	137	138	183	226	221	201	172	161	173	186	206	230	225	221	200	203	196	197	215	189	193	179	154	160	175	161	154	148	143	134	146	161	153	158	203	251	254	253	254	254	254	254	253	254	255	255	255	255	255	255	255	255	255	255	255	255	255	255	255	255	255	252	253	254	254	254	254	253	232	182	148	152	159	152	146	148	147	158	157	167	151	160	176	187	197	217	217	196	193	201	212	236	235	215	196	192	199	211	218	221	213	221	175	169	212	220	216	215	190	174	167	183	215	211	181	151	164	166	167	165	165	167	166	164	151	181	211	215	183	167	174	190	215	216	220	212	169	175	221	213	221	218	211	199	192	196	215	235	236	212	201	193	196	217	217	197	187	176	160	151	167	157	158	147	148	146	152	159	152	148	182	232	253	254	254	254	254	253	252	255	255	255	255	255	255	255	255	255	255	255	255	255	255	255	255	255	255	253	253	254	254	254	254	245	191	168	157	152	144	149	154	146	151	158	156	163	166	183	187	184	177	165	203	221	212	205	191	198	226	230	216	196	196	205	206	200	208	214	188	188	208	213	201	186	154	128	155	199	208	202	193	168	141	146	169	180	180	169	146	141	168	193	202	208	199	155	128	154	186	201	213	208	188	188	214	208	200	206	205	196	196	216	230	226	198	191	205	212	221	203	165	177	184	187	183	166	163	156	158	151	146	154	149	144	152	157	168	191	245	254	254	254	254	253	253	255	255	255	255	255	255	255	255	255	255	255	255	255	255	255	255	255	255	255	253	254	254	254	253	225	172	154	156	158	140	136	150	153	151	153	160	158	178	187	183	171	159	153	160	204	216	203	201	172	185	214	226	211	200	204	215	223	211	190	179	173	179	186	184	190	176	163	186	209	180	149	132	119	111	155	194	170	170	194	155	111	119	132	149	180	209	186	163	176	190	184	186	179	173	179	190	211	223	215	204	200	211	226	214	185	172	201	203	216	204	160	153	159	171	183	187	178	158	160	153	151	153	150	136	140	158	156	154	172	225	253	254	254	254	253	255	255	255	255	255	255	255	255	255	255	255	255	255	255	255	255	255	255	255	255	253	254	254	254	246	197	173	157	157	156	142	144	156	156	150	153	166	159	177	173	165	159	167	175	156	153	189	215	213	199	194	198	209	221	224	216	205	197	179	182	188	166	140	126	137	190	194	213	208	198	174	137	101	100	131	162	187	142	142	187	162	131	100	101	137	174	198	208	213	194	190	137	126	140	166	188	182	179	197	205	216	224	221	209	198	194	199	213	215	189	153	156	175	167	159	165	173	177	159	166	153	150	156	156	144	142	156	157	157	173	197	246	254	254	254	253	255	255	255	255	255	255	255	255	255	255	255	255	255	255	255	255	255	255	253	255	252	254	253	253	236	168	163	159	153	142	138	153	159	142	159	159	168	167	177	174	161	170	159	168	173	148	167	202	197	212	216	190	183	200	219	231	231	218	216	218	207	191	172	142	131	153	179	204	185	165	147	126	101	119	148	158	170	116	116	170	158	148	119	101	126	147	165	185	204	179	153	131	142	172	191	207	218	216	218	231	231	219	200	183	190	216	212	197	202	167	148	173	168	159	170	161	174	177	167	168	159	159	142	159	153	138	142	153	159	163	168	236	253	253	254	252	255	253	255	255	255	255	255	255	255	255	255	255	255	255	255	255	255	255	252	255	251	254	252	252	230	150	157	154	150	144	144	154	153	138	155	151	150	161	168	175	157	174	148	152	156	160	140	143	189	208	202	194	195	188	176	194	222	228	221	201	191	220	223	190	150	101	126	119	111	141	159	162	136	126	91	138	162	80	80	162	138	91	126	136	162	159	141	111	119	126	101	150	190	223	220	191	201	221	228	222	194	176	188	195	194	202	208	189	143	140	160	156	152	148	174	157	175	168	161	150	151	155	138	153	154	144	144	150	154	157	150	230	252	252	254	251	255	252	255	255	255	255	255	255	255	255	255	255	255	255	255	255	255	255	254	255	250	254	252	253	182	160	157	162	146	146	145	154	146	154	156	153	165	151	162	186	168	182	163	141	152	156	170	156	151	168	189	193	198	196	188	184	177	149	98	136	186	191	191	172	141	92	83	126	140	144	148	158	124	95	41	151	148	82	82	148	151	41	95	124	158	148	144	140	126	83	92	141	172	191	191	186	136	98	149	177	184	188	196	198	193	189	168	151	156	170	156	152	141	163	182	168	186	162	151	165	153	156	154	146	154	145	146	146	162	157	160	182	253	252	254	250	255	254	255	255	255	255	255	255	255	255	255	255	255	255	255	255	255	255	254	254	251	254	253	239	175	161	156	160	146	146	148	157	152	158	157	156	143	163	141	178	183	172	148	139	132	150	158	166	149	156	162	170	180	183	187	194	173	135	113	120	133	144	148	156	141	110	93	111	114	114	118	119	100	89	97	143	124	38	38	124	143	97	89	100	119	118	114	114	111	93	110	141	156	148	144	133	120	113	135	173	194	187	183	180	170	162	156	149	166	158	150	132	139	148	172	183	178	141	163	143	156	157	158	152	157	148	146	146	160	156	161	175	239	253	254	251	254	254	255	255	255	255	255	255	255	255	255	255	255	255	255	255	255	255	254	254	253	254	254	213	162	159	152	156	149	152	156	162	155	155	147	139	155	163	164	157	174	153	178	177	148	141	133	147	157	168	153	156	154	147	140	154	166	162	156	136	118	122	109	123	113	94	71	70	69	71	87	86	85	88	75	110	120	45	45	120	110	75	88	85	86	87	71	69	70	71	94	113	123	109	122	118	136	156	162	166	154	140	147	154	156	153	168	157	147	133	141	148	177	178	153	174	157	164	163	155	139	147	155	155	162	156	152	149	156	152	159	162	213	254	254	253	254	254	255	255	255	255	255	255	255	255	255	255	255	255	255	255	255	255	254	254	255	253	254	187	152	157	149	154	157	163	168	168	157	150	153	150	158	167	166	169	152	181	175	179	161	136	132	130	146	150	161	152	111	61	60	103	129	120	128	116	114	119	103	111	108	92	52	42	44	49	78	83	86	80	59	101	112	54	54	112	101	59	80	86	83	78	49	44	42	52	92	108	111	103	119	114	116	128	120	129	103	60	61	111	152	161	150	146	130	132	136	161	179	175	181	152	169	166	167	158	150	153	150	157	168	168	163	157	154	149	157	152	187	254	253	255	254	254	255	255	255	255	255	255	255	255	255	255	255	255	255	255	255	255	254	254	255	254	252	169	152	159	150	153	161	167	172	171	164	154	147	146	151	156	163	171	158	175	183	184	168	153	151	130	132	127	142	84	44	47	52	44	63	104	84	90	108	105	99	98	98	77	61	54	56	56	84	93	86	58	55	100	105	96	96	105	100	55	58	86	93	84	56	56	54	61	77	98	98	99	105	108	90	84	104	63	44	52	47	44	84	142	127	132	130	151	153	168	184	183	175	158	171	163	156	151	146	147	154	164	171	172	167	161	153	150	159	152	169	252	254	255	254	254	255	255	255	255	255	255	255	255	255	255	255	255	255	255	255	254	254	254	255	254	247	162	160	162	153	150	156	155	161	164	170	164	147	144	150	144	159	152	183	140	175	185	176	183	166	150	128	122	77	61	43	38	42	43	55	76	79	88	101	86	91	87	85	62	56	55	63	67	83	89	74	39	36	83	107	155	155	107	83	36	39	74	89	83	67	63	55	56	62	85	87	91	86	101	88	79	76	55	43	42	38	43	61	77	122	128	150	166	183	176	185	175	140	183	152	159	144	150	144	147	164	170	164	161	155	156	150	153	162	160	162	247	254	255	254	254	254	255	255	255	255	255	255	255	255	255	255	255	255	255	255	254	254	253	255	254	237	156	165	158	161	151	154	146	151	157	175	174	172	173	147	151	133	152	187	167	140	159	175	189	179	163	125	114	91	67	36	26	35	35	33	41	50	69	75	70	84	94	89	79	39	41	59	83	80	73	51	28	38	84	125	150	150	125	84	38	28	51	73	80	83	59	41	39	79	89	94	84	70	75	69	50	41	33	35	35	26	36	67	91	114	125	163	179	189	175	159	140	167	187	152	133	151	147	173	172	174	175	157	151	146	154	151	161	158	165	156	237	254	255	253	254	254	255	255	255	255	255	255	255	255	255	255	255	255	255	255	254	254	253	253	254	227	151	165	150	170	158	160	149	151	158	181	181	166	163	165	140	149	140	168	195	187	181	189	174	182	167	133	112	98	84	53	21	17	22	33	50	38	63	63	67	72	80	65	66	37	39	65	102	83	56	28	21	25	93	162	143	143	162	93	25	21	28	56	83	102	65	39	37	66	65	80	72	67	63	63	38	50	33	22	17	21	53	84	98	112	133	167	182	174	189	181	187	195	168	140	149	140	165	163	166	181	181	158	151	149	160	158	170	150	165	151	227	254	253	253	254	254	255	255	255	255	255	255	255	255	255	255	255	255	255	255	254	253	252	253	254	213	149	168	182	192	188	163	147	150	160	159	173	159	173	171	159	131	143	154	156	181	199	131	105	140	148	149	151	137	85	62	40	18	12	13	36	57	82	102	101	95	89	77	62	53	68	88	63	35	29	26	37	55	111	143	133	133	143	111	55	37	26	29	35	63	88	68	53	62	77	89	95	101	102	82	57	36	13	12	18	40	62	85	137	151	149	148	140	105	131	199	181	156	154	143	131	159	171	173	159	173	159	160	150	147	163	188	192	182	168	149	213	254	253	252	253	254	255	255	255	255	255	255	255	255	255	255	255	255	255	255	254	253	253	254	254	221	163	176	183	158	157	147	147	141	146	145	167	178	157	166	193	161	159	152	158	140	127	89	68	84	110	132	139	132	130	112	68	33	22	18	23	26	41	75	100	103	87	69	57	80	69	65	48	38	40	44	61	84	98	114	122	122	114	98	84	61	44	40	38	48	65	69	80	57	69	87	103	100	75	41	26	23	18	22	33	68	112	130	132	139	132	110	84	68	89	127	140	158	152	159	161	193	166	157	178	167	145	146	141	147	147	157	158	183	176	163	221	254	254	253	253	254	255	255	255	255	255	255	255	255	255	255	255	255	255	255	254	252	253	252	253	232	172	174	172	141	144	139	143	132	136	137	163	171	146	138	136	106	122	114	129	110	109	103	70	44	43	59	89	100	123	116	100	78	52	42	38	30	36	49	72	89	86	69	53	76	47	34	37	52	64	69	82	95	96	107	122	122	107	96	95	82	69	64	52	37	34	47	76	53	69	86	89	72	49	36	30	38	42	52	78	100	116	123	100	89	59	43	44	70	103	109	110	129	114	122	106	136	138	146	171	163	137	136	132	143	139	144	141	172	174	172	232	253	252	253	252	254	255	255	255	255	255	255	255	255	255	255	255	255	255	255	255	249	253	251	253	240	170	164	162	158	166	176	178	159	139	104	92	122	121	102	107	104	115	95	119	129	143	133	113	95	52	20	33	72	86	94	106	113	89	62	61	51	46	40	47	55	76	77	66	49	34	35	56	79	88	85	84	91	110	115	104	104	115	110	91	84	85	88	79	56	35	34	49	66	77	76	55	47	40	46	51	61	62	89	113	106	94	86	72	33	20	52	95	113	133	143	129	119	95	115	104	107	102	121	122	92	104	139	159	178	176	166	158	162	164	170	240	253	251	253	249	255	255	255	255	255	255	255	255	255	255	255	255	255	255	255	255	254	253	251	253	243	163	162	169	192	193	194	167	143	120	99	79	80	110	94	101	110	129	103	73	105	124	121	137	135	89	56	38	47	58	79	85	101	96	66	73	71	77	72	56	51	57	68	74	53	60	72	88	100	99	93	84	101	118	108	78	78	108	118	101	84	93	99	100	88	72	60	53	74	68	57	51	56	72	77	71	73	66	96	101	85	79	58	47	38	56	89	135	137	121	124	105	73	103	129	110	101	94	110	80	79	99	120	143	167	194	193	192	169	162	163	243	253	251	253	254	255	255	255	255	255	255	255	255	255	255	255	255	255	255	255	255	254	250	249	252	238	159	171	184	203	172	152	109	111	111	115	99	49	81	90	87	79	122	139	80	69	74	84	115	107	93	103	73	44	47	72	71	69	59	37	61	80	81	82	74	56	40	41	53	72	90	98	99	95	92	94	86	107	110	105	95	95	105	110	107	86	94	92	95	99	98	90	72	53	41	40	56	74	82	81	80	61	37	59	69	71	72	47	44	73	103	93	107	115	84	74	69	80	139	122	79	87	90	81	49	99	115	111	111	109	152	172	203	184	171	159	238	252	249	250	254	255	255	255	255	255	255	255	255	255	255	255	255	255	255	255	255	254	248	253	252	234	160	182	191	176	132	128	139	164	155	129	99	83	67	97	112	81	60	81	73	79	60	56	71	70	86	105	77	60	67	87	85	69	48	26	28	74	76	84	89	81	66	60	65	76	93	93	92	86	82	90	85	102	104	111	118	118	111	104	102	85	90	82	86	92	93	93	76	65	60	66	81	89	84	76	74	28	26	48	69	85	87	67	60	77	105	86	70	71	56	60	79	73	81	60	81	112	97	67	83	99	129	155	164	139	128	132	176	191	182	160	234	252	253	248	254	255	255	255	255	255	255	255	255	255	255	255	255	255	255	255	255	254	250	254	253	236	166	191	190	89	79	113	143	128	104	114	147	143	113	143	145	118	74	72	90	68	65	60	40	35	52	68	79	63	94	108	102	99	100	73	22	43	62	80	80	69	59	52	48	72	85	84	90	88	80	86	79	103	110	110	106	106	110	110	103	79	86	80	88	90	84	85	72	48	52	59	69	80	80	62	43	22	73	100	99	102	108	94	63	79	68	52	35	40	60	65	68	90	72	74	118	145	143	113	143	147	114	104	128	143	113	79	89	190	191	166	236	253	254	250	254	255	255	255	255	255	255	255	255	255	255	255	255	255	255	255	255	254	254	251	252	245	200	203	101	48	94	114	101	71	92	112	124	140	145	142	152	155	133	103	72	81	68	66	49	32	19	53	41	41	55	74	76	75	95	97	70	25	49	56	79	81	41	43	56	51	79	93	91	87	62	63	94	118	117	108	67	67	108	117	118	94	63	62	87	91	93	79	51	56	43	41	81	79	56	49	25	70	97	95	75	76	74	55	41	41	53	19	32	49	66	68	81	72	103	133	155	152	142	145	140	124	112	92	71	101	114	94	48	101	203	200	245	252	251	254	254	255	255	255	255	255	255	255	255	255	255	255	255	255	255	255	255	249	245	250	254	253	217	123	38	59	96	81	40	43	84	98	93	115	143	143	151	158	106	107	98	139	127	91	46	27	21	44	21	28	40	57	64	70	94	110	105	64	50	42	67	81	68	62	47	52	66	78	91	84	66	69	101	110	110	111	85	85	111	110	110	101	69	66	84	91	78	66	52	47	62	68	81	67	42	50	64	105	110	94	70	64	57	40	28	21	44	21	27	46	91	127	139	98	107	106	158	151	143	143	115	93	98	84	43	40	81	96	59	38	123	217	253	254	250	245	249	255	255	255	255	255	255	255	255	255	255	255	255	255	255	255	255	249	250	254	247	248	179	62	43	54	56	35	34	78	88	79	85	100	158	155	159	148	97	120	130	147	157	141	105	71	48	58	41	37	40	48	53	56	62	76	88	87	48	42	72	89	97	93	66	46	53	65	96	82	75	79	107	101	94	102	93	93	102	94	101	107	79	75	82	96	65	53	46	66	93	97	89	72	42	48	87	88	76	62	56	53	48	40	37	41	58	48	71	105	141	157	147	130	120	97	148	159	155	158	100	85	79	88	78	34	35	56	54	43	62	179	248	247	254	250	249	255	255	255	255	255	255	255	255	255	255	255	255	255	255	255	254	253	254	251	240	234	125	36	37	48	45	33	35	84	93	78	67	109	163	147	158	126	117	128	128	119	134	156	162	117	72	93	109	103	91	75	61	47	34	44	67	80	44	47	70	80	82	74	62	56	67	95	134	104	97	91	99	92	77	87	87	87	87	77	92	99	91	97	104	134	95	67	56	62	74	82	80	70	47	44	80	67	44	34	47	61	75	91	103	109	93	72	117	162	156	134	119	128	128	117	126	158	147	163	109	67	78	93	84	35	33	45	48	37	36	125	234	240	251	254	253	254	255	255	255	255	255	255	255	255	255	255	255	255	255	255	254	248	253	251	251	204	84	19	27	34	33	40	42	73	83	79	61	130	141	135	151	118	124	124	104	83	93	137	170	131	69	98	126	106	103	102	108	105	92	93	109	113	83	60	52	52	44	42	62	93	112	144	168	118	108	93	79	79	66	78	80	80	78	66	79	79	93	108	118	168	144	112	93	62	42	44	52	52	60	83	113	109	93	92	105	108	102	103	106	126	98	69	131	170	137	93	83	104	124	124	118	151	135	141	130	61	79	83	73	42	40	33	34	27	19	84	204	251	251	253	248	254	255	255	255	255	255	255	255	255	255	255	255	255	255	255	254	253	251	254	255	150	79	18	32	35	34	41	45	59	73	82	73	124	108	131	139	102	71	87	76	56	81	122	138	119	62	79	102	127	113	101	97	98	106	125	142	142	126	73	41	30	22	50	102	115	125	138	130	78	80	80	62	59	58	75	72	72	75	58	59	62	80	80	78	130	138	125	115	102	50	22	30	41	73	126	142	142	125	106	98	97	101	113	127	102	79	62	119	138	122	81	56	76	87	71	102	139	131	108	124	73	82	73	59	45	41	34	35	32	18	79	150	255	254	251	253	254	255	255	255	255	255	255	255	255	255	255	255	255	255	255	254	253	244	245	244	127	117	59	34	49	60	39	16	28	67	80	76	96	85	103	113	75	26	61	59	53	89	100	85	116	64	71	87	93	88	92	89	88	104	118	115	129	172	171	167	162	142	133	133	109	103	99	74	36	50	65	49	40	48	62	46	46	62	48	40	49	65	50	36	74	99	103	109	133	133	142	162	167	171	172	129	115	118	104	88	89	92	88	93	87	71	64	116	85	100	89	53	59	61	26	75	113	103	85	96	76	80	67	28	16	39	60	49	34	59	117	127	244	245	244	253	254	255	255	255	255	255	255	255	255	255	255	255	255	255	255	254	250	253	249	241	126	127	120	87	32	29	5	18	44	57	52	79	92	89	71	97	74	38	67	63	42	83	76	65	153	98	61	52	86	90	101	98	89	101	103	81	120	163	164	176	192	186	164	127	96	87	83	62	39	49	61	40	30	41	45	20	20	45	41	30	40	61	49	39	62	83	87	96	127	164	186	192	176	164	163	120	81	103	101	89	98	101	90	86	52	61	98	153	65	76	83	42	63	67	38	74	97	71	89	92	79	52	57	44	18	5	29	32	87	120	127	126	241	249	253	250	254	255	255	255	255	255	255	255	255	255	255	255	255	255	255	255	254	253	254	247	206	128	133	127	121	74	29	15	26	41	56	68	72	78	67	110	72	30	72	76	39	47	49	93	180	185	148	48	66	82	97	93	89	75	73	107	168	169	165	164	164	179	168	135	93	89	63	23	30	37	41	33	39	25	20	25	25	20	25	39	33	41	37	30	23	63	89	93	135	168	179	164	164	165	169	168	107	73	75	89	93	97	82	66	48	148	185	180	93	49	47	39	76	72	30	72	110	67	78	72	68	56	41	26	15	29	74	121	127	133	128	206	247	254	253	254	255	255	255	255	255	255	255	255	255	255	255	255	255	255	255	255	254	254	254	254	233	138	126	134	125	125	122	104	70	42	41	54	57	55	45	77	61	32	69	74	52	39	48	141	189	168	162	154	129	114	123	140	158	173	175	180	182	172	161	170	174	173	131	109	103	90	62	27	28	28	20	8	25	39	37	19	19	37	39	25	8	20	28	28	27	62	90	103	109	131	173	174	170	161	172	182	180	175	173	158	140	123	114	129	154	162	168	189	141	48	39	52	74	69	32	61	77	45	55	57	54	41	42	70	104	122	125	125	134	126	138	233	254	254	254	254	255	255	255	255	255	255	255	255	255	255	255	255	255	255	255	255	252	253	249	253	244	156	126	129	135	134	128	128	128	119	99	83	27	14	18	25	54	33	71	76	40	40	71	167	197	160	181	202	164	158	188	205	189	190	191	183	173	183	177	168	161	150	113	113	140	143	154	145	138	116	96	71	17	14	18	25	25	18	14	17	71	96	116	138	145	154	143	140	113	113	150	161	168	177	183	173	183	191	190	189	205	188	158	164	202	181	160	197	167	71	40	40	76	71	33	54	25	18	14	27	83	99	119	128	128	128	134	135	129	126	156	244	253	249	253	252	255	255	255	255	255	255	255	255	255	255	255	255	255	255	255	255	252	254	254	254	254	198	151	126	119	126	127	129	130	129	127	127	124	117	79	85	59	66	43	57	70	105	151	173	178	139	164	175	154	139	163	183	177	180	175	159	167	177	167	157	162	154	117	127	160	147	156	156	152	143	162	173	139	87	31	11	11	31	87	139	173	162	143	152	156	156	147	160	127	117	154	162	157	167	177	167	159	175	180	177	183	163	139	154	175	164	139	178	173	151	105	70	57	43	66	59	85	79	117	124	127	127	129	130	129	127	126	119	126	151	198	254	254	254	254	252	255	255	255	255	255	255	255	255	255	255	255	255	255	255	255	255	254	251	247	243	251	251	248	225	190	182	169	160	166	179	195	201	231	226	228	215	228	232	229	241	237	232	235	231	235	219	228	226	230	226	238	232	218	217	223	236	237	238	226	229	240	210	159	166	163	143	160	178	176	149	146	145	139	127	116	67	67	116	127	139	145	146	149	176	178	160	143	163	166	159	210	240	229	226	238	237	236	223	217	218	232	238	226	230	226	228	219	235	231	235	232	237	241	229	232	228	215	228	226	231	201	195	179	166	160	169	182	190	225	248	251	251	243	247	251	254	255	255	255	255	255	255	255	255	255	255	255	255	255	255	255	255	254	252	255	254	254	254	254	246	245	249	250	252	251	253	254	254	248	252	253	249	251	254	242	254	249	253	249	251	250	244	253	252	253	250	246	244	253	253	245	254	246	254	252	252	249	219	161	151	172	156	164	170	165	132	129	133	152	181	217	242	242	217	181	152	133	129	132	165	170	164	156	172	151	161	219	249	252	252	254	246	254	245	253	253	244	246	250	253	252	253	244	250	251	249	253	249	254	242	254	251	249	253	252	248	254	254	253	251	252	250	249	245	246	254	254	254	254	255	252	254	255	255	255	255	255	255	255	255	255	255	255	255	255	255	255	255	254	252	252	251	250	248	249	254	255	254	253	253	254	254	253	253	252	250	254	243	253	247	251	250	250	248	241	249	254	254	254	242	247	252	255	254	254	249	244	247	251	252	251	249	252	252	202	164	154	157	166	167	184	191	224	251	254	243	246	254	254	246	243	254	251	224	191	184	167	166	157	154	164	202	252	252	249	251	252	251	247	244	249	254	254	255	252	247	242	254	254	254	249	241	248	250	250	251	247	253	243	254	250	252	253	253	254	254	253	253	254	255	254	249	248	250	251	252	252	254	255	255	255	255	255	255	255	255	255	255	255	255	255	255	255	255	254	255	253	247	254	254	247	254	254	253	251	252	253	253	252	254	254	253	249	251	250	254	251	252	254	252	254	249	254	245	254	254	254	247	251	251	249	254	254	249	249	250	254	254	247	253	248	249	241	252	253	247	253	254	253	252	254	254	254	248	248	254	254	254	252	253	254	253	247	253	252	241	249	248	253	247	254	254	250	249	249	254	254	249	251	251	247	254	254	254	245	254	249	254	252	254	252	251	254	250	251	249	253	254	254	252	253	253	252	251	253	254	254	247	254	254	247	253	255	254	255	255	255	255	255	255	255	255	255	255	255	255	255	255	255	255	255	255	255	255	255	255	255	255	254	254	254	254	254	254	254	254	254	254	254	254	254	254	254	254	254	254	254	254	254	254	254	254	254	254	254	254	254	254	254	254	254	254	254	254	254	254	253	252	253	252	252	253	252	253	253	254	254	254	254	254	254	254	254	254	254	253	253	252	253	252	252	253	252	253	254	254	254	254	254	254	254	254	254	254	254	254	254	254	254	254	254	254	254	254	254	254	254	254	254	254	254	254	254	254	254	254	254	254	254	254	254	254	255	255	255	255	255	255	255	255	255	255	255	255	255	255	255	255	255	255	255	255	255	255	255	255	255	255	255	255	255	255	255	255	254	254	254	254	254	254	254	254	254	254	254	254	254	254	254	254	254	254	254	254	254	254	254	254	254	254	254	254	254	254	254	254	254	254	253	253	254	254	253	253	253	253	253	252	253	253	253	254	254	254	254	254	254	254	254	254	254	253	253	253	252	253	253	253	253	253	254	254	253	253	254	254	254	254	254	254	254	254	254	254	254	254	254	254	254	254	254	254	254	254	254	254	254	254	254	254	254	254	254	254	254	254	254	254	255	255	255	255	255	255	255	255	255	255	255	255	255	255	255	255	